<?xml version="1.0" encoding="UTF-8" standalone="no"?>
<!DOCTYPE svg PUBLIC "-//W3C//DTD SVG 1.1//EN" "http://www.w3.org/Graphics/SVG/1.1/DTD/svg11.dtd">
<svg version="1.1" xmlns="http://www.w3.org/2000/svg" xmlns:xlink="http://www.w3.org/1999/xlink" preserveAspectRatio="xMidYMid meet" viewBox="179.5412175015854 216.35939024071428 323.91756499682924 226.64060975928572" width="315" height="315"><defs><path d="M350.4 419.5C388.99 421.51 413.06 414.74 422.58 399.2C468.69 407.72 493.51 397.45 497.01 368.38C500.52 339.3 483.23 321.01 445.14 313.49C454.66 300.46 455.66 290.93 448.14 284.92C440.62 278.9 430.35 280.41 417.32 289.43C418.82 272.39 415.56 258.35 407.54 247.32C395.51 230.78 374.46 221.76 334.61 219.5C294.76 217.25 264.68 242.06 259.42 254.09C255.91 262.11 255.91 275.89 259.42 295.44C239.37 287.42 221.08 287.42 204.53 295.44C179.72 307.47 166.19 400.71 218.07 416.5C252.65 427.02 272.2 417.5 276.71 387.92C287.24 406.97 311.8 417.5 350.4 419.5Z" id="g2hy1uTqIT"></path><path d="M370.74 313.48L354.89 319.5L358.44 331.25C355.89 332.7 353.16 334.57 350.24 336.84C347.33 339.12 344.87 341.53 342.87 344.09L330.9 336.84L322.7 351.19L334.45 358.02C333.32 360.21 332.32 363.22 331.44 367.04C330.57 370.87 330.02 374.69 329.8 378.52L318 380.7L321.28 396.83L332.21 394.23C332.94 396.87 334.3 399.83 336.31 403.11C338.31 406.39 340.42 409.12 342.65 411.31L335 420.6L348.33 431.12L355.49 421.69C360.01 423.7 363.45 424.92 365.82 425.38C368.19 425.83 371.58 426.15 375.98 426.34L375.98 440L391.5 439.31L391.5 426.34C395.33 425.97 399.06 425.06 402.71 423.6C406.35 422.15 409.74 420.78 412.87 419.51L421.07 428.8L433.37 418.82L425.17 408.58C427.14 405.48 429.03 402.29 430.85 399.01C432.67 395.73 433.77 392.77 434.13 390.13L446.97 390.13L447.79 374.69L434.41 373.73C434.77 370.91 434.77 368.18 434.41 365.53C434.04 362.89 433.69 360.93 433.37 359.66L444.79 353.24L437.47 339.17L425.72 343.82C424.22 341.27 422.29 338.9 419.92 336.71C417.55 334.52 415 332.66 412.27 331.11L416.97 321.14L401.89 314.58L395.66 326.33C392.71 325.33 389.5 324.96 386.04 325.23C382.58 325.5 378.75 325.87 374.56 326.33L370.74 313.48Z" id="b2bPZ7Z6dt"></path><path d="M411.01 375.29C411.01 390.44 398.7 402.75 383.54 402.75C368.38 402.75 356.08 390.44 356.08 375.29C356.08 360.13 368.38 347.82 383.54 347.82C398.7 347.82 411.01 360.13 411.01 375.29Z" id="hAJIl6S6y"></path></defs><g><g><g><filter id="shadow12662980" x="169.54" y="206.36" width="344.92" height="232.28" filterUnits="userSpaceOnUse" primitiveUnits="userSpaceOnUse"><feFlood></feFlood><feComposite in2="SourceAlpha" operator="in"></feComposite><feGaussianBlur stdDeviation="1"></feGaussianBlur><feOffset dx="4" dy="5" result="afterOffset"></feOffset><feFlood flood-color="#000000" flood-opacity="0.41"></feFlood><feComposite in2="afterOffset" operator="in"></feComposite><feMorphology operator="dilate" radius="1"></feMorphology><feComposite in2="SourceAlpha" operator="out"></feComposite></filter><path d="M350.4 419.5C388.99 421.51 413.06 414.74 422.58 399.2C468.69 407.72 493.51 397.45 497.01 368.38C500.52 339.3 483.23 321.01 445.14 313.49C454.66 300.46 455.66 290.93 448.14 284.92C440.62 278.9 430.35 280.41 417.32 289.43C418.82 272.39 415.56 258.35 407.54 247.32C395.51 230.78 374.46 221.76 334.61 219.5C294.76 217.25 264.68 242.06 259.42 254.09C255.91 262.11 255.91 275.89 259.42 295.44C239.37 287.42 221.08 287.42 204.53 295.44C179.72 307.47 166.19 400.71 218.07 416.5C252.65 427.02 272.2 417.5 276.71 387.92C287.24 406.97 311.8 417.5 350.4 419.5Z" id="a1I2btkvih" fill="white" fill-opacity="1" filter="url(#shadow12662980)"></path></g><use xlink:href="#g2hy1uTqIT" opacity="1" fill="#ffffff" fill-opacity="1"></use><g><use xlink:href="#g2hy1uTqIT" opacity="1" fill-opacity="0" stroke="#6c98ea" stroke-width="6" stroke-opacity="1"></use></g></g><g><use xlink:href="#b2bPZ7Z6dt" opacity="1" fill="#ffffff" fill-opacity="1"></use><g><use xlink:href="#b2bPZ7Z6dt" opacity="1" fill-opacity="0" stroke="#a2cdea" stroke-width="4" stroke-opacity="1"></use></g></g><g><use xlink:href="#hAJIl6S6y" opacity="1" fill="#ffffff" fill-opacity="1"></use><g><use xlink:href="#hAJIl6S6y" opacity="1" fill-opacity="0" stroke="#a2cdea" stroke-width="5" stroke-opacity="1"></use></g></g></g></svg>